<svg xmlns="http://www.w3.org/2000/svg" width="297" height="287" fill="none"><path stroke="#202124" stroke-miterlimit="10" stroke-width="2" d="M1 25.44h296M1 260.431h296"/><path fill="#fff" stroke="#202124" stroke-miterlimit="10" stroke-width="2" d="M13.864 26.222a6.432 6.432 0 1 0-12.864 0 6.432 6.432 0 0 0 12.864 0Z"/><path fill="#FFBB01" stroke="#202124" stroke-miterlimit="10" stroke-width="2" d="M120.062 26.222a6.432 6.432 0 1 0-12.864 0 6.432 6.432 0 0 0 12.864 0ZM226.261 26.222a6.432 6.432 0 1 0-12.864 0 6.432 6.432 0 0 0 12.864 0ZM226.261 261.215a6.432 6.432 0 1 0-12.865 0 6.432 6.432 0 0 0 12.865 0ZM37.152 6.843v38.319a4 4 0 0 0 4 4h38.32a4 4 0 0 0 4-4V6.843a4 4 0 0 0-4-4h-38.32a4 4 0 0 0-4 4ZM166.511 49.162c12.791 0 23.159-10.369 23.159-23.16 0-12.79-10.368-23.159-23.159-23.159-12.791 0-23.159 10.37-23.159 23.16 0 12.79 10.368 23.159 23.159 23.16Z"/><path fill="#E8EAED" stroke="#202124" stroke-miterlimit="10" stroke-width="2" d="M199.84 161.01c12.479 0 22.595-10.117 22.595-22.596s-10.116-22.595-22.595-22.595c-12.48 0-22.596 10.116-22.596 22.595s10.116 22.596 22.596 22.596Z"/><path fill="#fff" stroke="#202124" stroke-miterlimit="10" stroke-width="2" d="M272.709 285.284c12.791 0 23.16-10.369 23.16-23.159 0-12.791-10.369-23.16-23.16-23.16-12.79 0-23.159 10.369-23.159 23.16 0 12.79 10.369 23.159 23.159 23.159Z"/><path fill="#FFBB01" stroke="#202124" stroke-miterlimit="10" stroke-width="2" d="M166.511 237.836H60.313c-12.791 0-23.16 10.369-23.16 23.16s10.369 23.161 23.16 23.161H166.51c12.791 0 23.16-10.37 23.16-23.161 0-12.791-10.369-23.16-23.16-23.16Z"/><path fill="#E8EAED" stroke="#202124" stroke-miterlimit="10" stroke-width="2" d="M165.616 272.199c3.042 0 5.626-1.066 7.764-3.204 2.133-2.133 3.204-4.722 3.204-7.764 0-3.041-1.066-5.625-3.204-7.763-2.133-2.133-4.722-3.205-7.764-3.205-3.041 0-5.625 1.067-7.763 3.205-2.133 2.133-3.205 4.722-3.205 7.763 0 3.042 1.067 5.626 3.205 7.764 2.133 2.133 4.722 3.204 7.763 3.204Z"/><path stroke="#202124" stroke-width="2" d="M7.214 260.431V138.416h160.992c0 17.471 14.163 31.634 31.634 31.634s31.633-14.163 31.633-31.634h42.367V24.874"/><path fill="#FFBB01" stroke="#202124" stroke-miterlimit="10" stroke-width="2" d="M13.864 261.215a6.432 6.432 0 1 0-12.864 0 6.432 6.432 0 0 0 12.864 0ZM13.864 138.07a6.432 6.432 0 1 0-12.864 0 6.432 6.432 0 0 0 12.864 0ZM249.55 5.714v38.32a4 4 0 0 0 4 4h38.32a4 4 0 0 0 4-4V5.715a4 4 0 0 0-4-4h-38.32a4 4 0 0 0-4 4ZM96.465 114.691H60.313c-12.791 0-23.16 10.369-23.16 23.16s10.369 23.161 23.16 23.161h36.152c12.791 0 23.161-10.37 23.161-23.161 0-12.791-10.37-23.16-23.16-23.16Z"/></svg>